<svg width="400" height="400" viewBox="0 0 64 64" fill="none" xmlns="http://www.w3.org/2000/svg">
  <circle cx="32" cy="32" r="32" fill="url(#goldGrad)"/>
  <path d="M46.108 27.213c.63-4.212-2.57-6.476-6.947-7.988l1.42-5.69-3.461-.863-1.383 5.544c-.91-.227-1.842-.44-2.766-.65l1.393-5.586-3.461-.863-1.419 5.69c-.754-.172-1.49-.344-2.207-.523l.003-.015-4.774-1.192-.921 3.696s2.568.588 2.514.624c1.401.35 1.654 1.277 1.612 2.012l-1.614 6.47c.097.024.222.055.36.088l-.363-.09-2.261 9.066c-.171.425-.606 1.063-1.586.82-.054.013-2.514-.627-2.514-.627l-1.718 3.96 4.505 1.124c.838.21 1.657.426 2.458.634l-1.433 5.75 3.458.863 1.419-5.69c.946.257 1.87.5 2.775.728l-1.415 5.674 3.461.863 1.432-5.74c5.908 1.118 10.352.668 12.223-4.678 1.507-4.305-.075-6.787-3.187-8.41 2.266-.523 3.97-2.013 4.425-5.083zm-7.915 11.085c-1.07 4.303-8.312 1.978-10.66 1.39l1.902-7.625c2.348.586 9.873 1.745 8.758 6.235zm1.07-11.135c-.976 3.916-7.012 1.926-8.966 1.439l1.725-6.915c1.954.488 8.243 1.4 7.24 5.476z" fill="black"/>
  <defs><linearGradient id="goldGrad" x1="0%" y1="0%" x2="100%" y2="100%"><stop offset="0%" style="stop-color:#fbbf24"/><stop offset="100%" style="stop-color:#b45309"/></linearGradient></defs>
</svg>
