<svg xmlns="http://www.w3.org/2000/svg" viewBox="0 0 512 512">
  <defs>
    <linearGradient id="gold" x1="80" y1="80" x2="430" y2="430" gradientUnits="userSpaceOnUse">
      <stop stop-color="#fff4bd"/>
      <stop offset="0.45" stop-color="#f5c542"/>
      <stop offset="1" stop-color="#a87509"/>
    </linearGradient>
    <filter id="shadow" x="-20%" y="-20%" width="140%" height="140%">
      <feDropShadow dx="0" dy="20" stdDeviation="18" flood-color="#f5c542" flood-opacity="0.34"/>
    </filter>
  </defs>

  <rect width="512" height="512" rx="112" fill="#050505"/>

  <path filter="url(#shadow)" d="M256 54 92 124v118c0 106 67 178 164 216 97-38 164-110 164-216V124L256 54Z" fill="url(#gold)"/>

  <path d="M256 94 132 147v92c0 78 47 136 124 171 77-35 124-93 124-171v-92L256 94Z" fill="#090704" opacity="0.95"/>

  <path d="M218 156h62c43 0 69 21 69 55 0 23-12 40-33 48 26 7 41 27 41 55 0 39-29 63-76 63h-63V156Zm60 86c22 0 35-10 35-28s-13-27-35-27h-25v55h25Zm5 104c24 0 38-12 38-32 0-21-14-33-38-33h-30v65h30Z" fill="url(#gold)"/>

  <path d="M231 133h28v48h-28zm55 0h28v48h-28zM231 333h28v49h-28zm55 0h28v49h-28z" fill="#f5c542" opacity="0.86"/>

  <circle cx="256" cy="256" r="226" fill="none" stroke="#f5c542" stroke-opacity="0.25" stroke-width="6"/>

  <text x="256" y="455" text-anchor="middle" font-family="Inter, Arial, sans-serif" font-size="28" font-weight="800" fill="#fff4bd">
    NORDVAULT
  </text>
</svg>
