<svg xmlns="http://www.w3.org/2000/svg" viewBox="0 0 900 650">
  <defs>
    <linearGradient id="bg" x1="0" y1="0" x2="1" y2="1">
      <stop stop-color="#050505"/>
      <stop offset="0.5" stop-color="#11100b"/>
      <stop offset="1" stop-color="#201706"/>
    </linearGradient>
    <linearGradient id="gold" x1="0" x2="1">
      <stop stop-color="#fff4bd"/>
      <stop offset="0.45" stop-color="#f5c542"/>
      <stop offset="1" stop-color="#a87509"/>
    </linearGradient>
  </defs>

  <rect width="900" height="650" fill="url(#bg)"/>
  <circle cx="690" cy="110" r="190" fill="#f5c542" opacity="0.12"/>
  <circle cx="230" cy="180" r="120" fill="#ffffff" opacity="0.04"/>

  <!-- office background -->
  <rect x="90" y="95" width="720" height="330" rx="26" fill="#0c0c0a" stroke="#2b2414"/>
  <path d="M120 380h660M170 95v330M300 95v330M430 95v330M560 95v330M690 95v330" stroke="#2b2414" opacity="0.6"/>
  <path d="M120 190h660M120 285h660" stroke="#2b2414" opacity="0.6"/>

  <!-- portrait -->
  <circle cx="450" cy="232" r="108" fill="#d8b28d"/>
  <path d="M348 190c30-72 141-110 212-21 18 23 30 61 23 91-65-52-161-64-235-70z" fill="#c9c9c9"/>
  <circle cx="410" cy="232" r="8" fill="#121212"/>
  <circle cx="490" cy="232" r="8" fill="#121212"/>
  <path d="M412 292c29 22 55 22 83 0" stroke="#6b3e2d" stroke-width="9" fill="none" stroke-linecap="round"/>

  <!-- suit -->
  <path d="M235 650c42-178 124-260 215-260s173 82 215 260z" fill="#080b12"/>
  <path d="M365 420l85 120 85-120" fill="#ffffff"/>
  <path d="M410 545l40-88 40 88" fill="url(#gold)"/>
  <path d="M235 650c42-178 124-260 215-260l-105 260z" fill="#111827"/>
  <path d="M665 650c-42-178-124-260-215-260l105 260z" fill="#0b1020"/>

  <rect x="260" y="520" width="380" height="88" rx="18" fill="#080807" stroke="#2b2414"/>
  <text x="450" y="558" text-anchor="middle" font-family="Inter, Arial" font-size="30" font-weight="800" fill="#fff4bd">Dr. Maximilian Hoffmann</text>
  <text x="450" y="590" text-anchor="middle" font-family="Inter, Arial" font-size="18" fill="#f5c542">Founder & Chief Executive Officer</text>
  <text x="450" y="616" text-anchor="middle" font-family="Inter, Arial" font-size="13" fill="#9c8c64">German · Frankfurt / London</text>
</svg>
