<svg xmlns="http://www.w3.org/2000/svg" viewBox="0 0 900 650">
  <defs>
    <linearGradient id="bg" x1="0" y1="0" x2="1" y2="1">
      <stop stop-color="#050505"/>
      <stop offset="0.5" stop-color="#11100b"/>
      <stop offset="1" stop-color="#201706"/>
    </linearGradient>
    <linearGradient id="gold" x1="0" x2="1">
      <stop stop-color="#fff4bd"/>
      <stop offset="0.45" stop-color="#f5c542"/>
      <stop offset="1" stop-color="#a87509"/>
    </linearGradient>
  </defs>

  <rect width="900" height="650" fill="url(#bg)"/>

  <text x="105" y="120" font-family="monospace" font-size="22" fill="#f5c542" opacity="0.75">
    &lt;multi-sig /&gt;
  </text>

  <text x="590" y="160" font-family="monospace" font-size="22" fill="#f5c542" opacity="0.75">
    coldVault()
  </text>

  <path d="M110 190h230M560 205h230M110 245h180M615 260h170" stroke="#2b2414" stroke-width="4"/>

  <circle cx="450" cy="228" r="108" fill="#e0c0a0"/>
  <path d="M350 160c50-72 150-67 200 0-70-27-130-27-200 0z" fill="#c9b36b"/>
  <circle cx="410" cy="228" r="8" fill="#111"/>
  <circle cx="490" cy="228" r="8" fill="#111"/>
  <path d="M412 292c30 17 56 17 86 0" stroke="#80564b" stroke-width="9" fill="none" stroke-linecap="round"/>

  <path d="M240 650c42-168 124-252 210-252s168 84 210 252z" fill="#0f172a"/>
  <path d="M365 424l85 116 85-116" fill="#111111"/>
  <path d="M410 545l40-85 40 85" fill="url(#gold)"/>

  <rect x="250" y="520" width="400" height="88" rx="18" fill="#080807" stroke="#2b2414"/>

  <text x="450" y="558" text-anchor="middle" font-family="Inter, Arial" font-size="30" font-weight="800" fill="#fff4bd">
    Jonas Lindqvist
  </text>

  <text x="450" y="590" text-anchor="middle" font-family="Inter, Arial" font-size="18" fill="#f5c542">
    Chief Technology Officer
  </text>

  <text x="450" y="616" text-anchor="middle" font-family="Inter, Arial" font-size="13" fill="#9c8c64">
    Swedish · Custody · Security Architecture
  </text>
</svg>
