<svg xmlns="http://www.w3.org/2000/svg" viewBox="0 0 900 650">
  <defs>
    <linearGradient id="bg" x1="0" y1="0" x2="1" y2="1">
      <stop stop-color="#050505"/>
      <stop offset="0.5" stop-color="#11100b"/>
      <stop offset="1" stop-color="#201706"/>
    </linearGradient>
    <linearGradient id="gold" x1="0" x2="1">
      <stop stop-color="#fff4bd"/>
      <stop offset="0.45" stop-color="#f5c542"/>
      <stop offset="1" stop-color="#a87509"/>
    </linearGradient>
  </defs>

  <rect width="900" height="650" fill="url(#bg)"/>
  <circle cx="175" cy="100" r="150" fill="#f5c542" opacity="0.10"/>
  <rect x="110" y="90" width="680" height="330" rx="28" fill="#0c0c0a" stroke="#2b2414"/>

  <path d="M150 365h600" stroke="#2b2414"/>
  <path d="M180 330h60v-90h-60zM285 330h60v-150h-60zM390 330h60v-110h-60zM495 330h60v-190h-60zM600 330h60v-70h-60z" fill="url(#gold)" opacity="0.85"/>

  <circle cx="450" cy="228" r="108" fill="#e0c3a3"/>
  <path d="M342 160c48-62 164-64 216 16-68-35-147-33-216-2z" fill="#d7c58f"/>
  <circle cx="410" cy="228" r="8" fill="#111"/>
  <circle cx="490" cy="228" r="8" fill="#111"/>
  <path d="M412 292c30 20 56 20 86 0" stroke="#a35f55" stroke-width="9" fill="none" stroke-linecap="round"/>
  <circle cx="365" cy="240" r="9" fill="#fff4bd"/>
  <circle cx="535" cy="240" r="9" fill="#fff4bd"/>

  <path d="M240 650c42-168 124-252 210-252s168 84 210 252z" fill="#111827"/>
  <path d="M365 424l85 116 85-116" fill="#ffffff"/>
  <path d="M410 545l40-85 40 85" fill="url(#gold)"/>

  <rect x="250" y="520" width="400" height="88" rx="18" fill="#080807" stroke="#2b2414"/>

  <text x="450" y="558" text-anchor="middle" font-family="Inter, Arial" font-size="30" font-weight="800" fill="#fff4bd">
    Dr. Annika Brandt
  </text>

  <text x="450" y="590" text-anchor="middle" font-family="Inter, Arial" font-size="18" fill="#f5c542">
    Chief Financial Officer
  </text>

  <text x="450" y="616" text-anchor="middle" font-family="Inter, Arial" font-size="13" fill="#9c8c64">
    German · Treasury · Proof-of-Reserves
  </text>
</svg>
